<svg version="1.1" id="Layer_1" xmlns="http://www.w3.org/2000/svg" xmlns:xlink="http://www.w3.org/1999/xlink" x="0px" y="0px"
	 width="100%" viewBox="0 0 50 50" enable-background="new 0 0 50 50" xml:space="preserve">
<path fill="#FFFFFF" opacity="1.000000" stroke="none" 
	d="
M28.000162,51.000000 
	C18.666779,51.000000 9.833448,51.000000 1.000090,51.000000 
	C1.000060,34.333382 1.000060,17.666761 1.000030,1.000108 
	C17.666611,1.000072 34.333221,1.000072 50.999874,1.000036 
	C50.999916,17.666603 50.999916,34.333206 50.999958,50.999905 
	C43.500072,51.000000 36.000145,51.000000 28.000162,51.000000 
M13.522150,41.913158 
	C13.693952,41.832901 13.865754,41.752647 14.705557,41.504684 
	C15.805119,41.240635 16.904682,40.976585 18.690559,40.754837 
	C19.785358,40.442642 20.880157,40.130447 22.544777,39.898529 
	C22.715506,39.811012 22.886232,39.723495 23.655767,39.502941 
	C24.430042,39.283646 25.204315,39.064354 26.526793,38.950710 
	C26.696346,38.873997 26.865898,38.797287 27.726084,38.540817 
	C29.484175,38.029232 31.242268,37.517647 33.816360,36.996178 
	C36.423695,36.472988 39.031033,35.949799 41.638371,35.426609 
	C41.617527,35.124485 41.596687,34.822357 41.575844,34.520229 
	C38.717381,34.124790 35.858913,33.729351 32.359440,33.063477 
	C31.901684,33.087322 31.443926,33.111168 30.264906,33.007282 
	C28.858177,32.770309 27.451447,32.533340 25.530304,32.076725 
	C25.346931,32.110737 25.163561,32.144749 24.313133,32.030758 
	C22.859749,32.013351 21.406363,31.995945 19.400539,31.770067 
	C18.634285,31.172628 17.868031,30.575191 16.994902,29.168653 
	C16.393225,27.925858 15.791548,26.683064 15.190738,25.113707 
	C15.063650,24.884729 14.875893,24.811201 14.686102,24.793791 
	C14.686102,24.793791 14.702524,24.610970 15.110611,23.699980 
	C14.055268,21.797712 12.999927,19.895443 12.032382,17.310148 
	C11.407302,16.835922 10.782223,16.361696 10.075411,15.140794 
	C9.680890,14.198315 9.286369,13.255836 8.891850,12.313356 
	C8.574374,12.430193 8.256900,12.547029 7.939425,12.663866 
	C8.046950,14.451273 8.154475,16.238680 8.163915,18.762516 
	C8.224649,19.498753 8.285384,20.234987 8.138981,21.756021 
	C8.192481,22.832083 8.245982,23.908144 8.118197,25.646179 
	C8.155076,26.100231 8.191955,26.554285 8.050159,27.900358 
	C8.109122,30.928057 8.168086,33.955753 8.105024,37.637791 
	C8.142930,38.078117 8.180836,38.518440 8.040980,39.728394 
	C7.978427,41.945915 7.727911,44.408794 11.746369,42.006344 
	C12.152057,41.939625 12.557744,41.872906 13.522150,41.913158 
z"/>
<path fill="#6B9CE4" opacity="1.000000" stroke="none" 
	d="
M14.627466,24.893122 
	C14.875893,24.811201 15.063650,24.884729 15.090180,25.689470 
	C15.693673,27.502741 16.397724,28.740248 17.101774,29.977755 
	C17.868031,30.575191 18.634285,31.172628 19.862997,32.173317 
	C21.906099,33.038166 23.486746,33.499767 25.291124,34.250435 
	C26.039469,35.048714 26.564081,35.557919 26.820362,36.094307 
	C26.306833,36.278687 26.061638,36.435890 25.816442,36.593098 
	C25.905098,36.722576 25.993753,36.852051 25.990139,37.094887 
	C25.897869,37.208244 25.869881,37.497948 25.510933,37.572567 
	C24.426462,37.755047 23.700937,37.862907 22.774605,37.994461 
	C22.302977,38.100288 22.106819,38.269062 21.623856,38.587322 
	C20.144299,39.021286 19.026213,39.392410 17.516750,39.762390 
	C16.077877,39.829342 15.030382,39.897430 13.743492,39.940475 
	C13.504098,39.915428 13.022546,39.894577 12.810844,39.669342 
	C11.809340,39.279613 11.019539,39.115120 10.198400,38.490311 
	C10.214662,33.701996 10.262259,29.373995 10.734981,25.040314 
	C12.315892,24.987465 13.471680,24.940292 14.627466,24.893122 
z"/>
<path fill="#0C10AD" opacity="1.000000" stroke="none" 
	d="
M33.000450,33.333908 
	C35.858913,33.729351 38.717381,34.124790 41.575844,34.520229 
	C41.596687,34.822357 41.617527,35.124485 41.638371,35.426609 
	C39.031033,35.949799 36.423695,36.472988 33.399529,36.745045 
	C32.982075,36.323097 32.981449,36.152283 33.147461,35.868553 
	C33.209549,34.948399 33.105000,34.141155 33.000450,33.333908 
z"/>
<path fill="#2B43C1" opacity="1.000000" stroke="none" 
	d="
M10.309855,25.045992 
	C10.262259,29.373995 10.214662,33.701996 9.861166,38.504864 
	C9.109758,38.972740 8.664250,38.965752 8.218741,38.958763 
	C8.180836,38.518440 8.142930,38.078117 8.409055,37.000519 
	C8.551668,33.244942 8.390251,30.126640 8.228834,27.008337 
	C8.191955,26.554285 8.155076,26.100231 8.482748,25.313900 
	C9.211195,24.989983 9.575092,24.998341 10.031708,25.016506 
	C10.124426,25.026312 10.309855,25.045992 10.309855,25.045992 
z"/>
<path fill="#1723B5" opacity="1.000000" stroke="none" 
	d="
M27.088694,36.067127 
	C26.564081,35.557919 26.039469,35.048714 25.276302,34.258606 
	C25.037748,33.977711 25.035738,33.977997 25.277601,33.867203 
	C25.694548,33.269730 25.869633,32.783047 26.044716,32.296368 
	C27.451447,32.533340 28.858177,32.770309 30.627819,33.429508 
	C30.975183,34.568378 30.959633,35.285019 30.600216,36.000298 
	C29.200466,36.021667 28.144579,36.044395 27.088694,36.067127 
z"/>
<path fill="#3C55C8" opacity="1.000000" stroke="none" 
	d="
M11.944584,17.993176 
	C12.999927,19.895443 14.055268,21.797712 14.577421,23.714619 
	C12.707626,23.493895 11.371022,23.258532 10.018372,22.682539 
	C9.989014,21.887396 9.975702,21.432886 9.977812,20.654541 
	C10.020287,19.899311 10.047340,19.467913 10.262781,18.942467 
	C10.693770,18.694715 10.877242,18.488428 11.240760,18.184135 
	C11.479938,18.138710 11.944584,17.993176 11.944584,17.993176 
z"/>
<path fill="#4E51C3" opacity="1.000000" stroke="none" 
	d="
M8.129861,39.343578 
	C8.664250,38.965752 9.109758,38.972740 9.892502,38.965176 
	C11.019539,39.115120 11.809340,39.279613 12.797244,39.948418 
	C12.995650,40.637959 12.995956,40.823193 12.699114,41.001564 
	C11.979408,41.362492 11.556851,41.730289 11.134295,42.098087 
	C7.727911,44.408794 7.978427,41.945915 8.129861,39.343578 
z"/>
<path fill="#1824B5" opacity="1.000000" stroke="none" 
	d="
M26.820362,36.094307 
	C28.144579,36.044395 29.200466,36.021667 30.940603,35.997150 
	C32.076843,35.990730 32.528835,35.986095 32.980824,35.981464 
	C32.981449,36.152283 32.982075,36.323097 32.991531,36.749985 
	C31.242268,37.517647 29.484175,38.029232 27.362654,38.365524 
	C26.693619,37.787331 26.388014,37.384430 26.082409,36.981529 
	C25.993753,36.852051 25.905098,36.722576 25.816442,36.593098 
	C26.061638,36.435890 26.306833,36.278687 26.820362,36.094307 
z"/>
<path fill="#131CB2" opacity="1.000000" stroke="none" 
	d="
M10.074394,19.036514 
	C10.047340,19.467913 10.020287,19.899311 9.709215,20.658157 
	C9.065504,20.980810 8.705812,20.976017 8.346120,20.971226 
	C8.285384,20.234987 8.224649,19.498753 8.429443,18.193619 
	C9.182363,17.045637 9.669753,16.466553 10.157144,15.887469 
	C10.782223,16.361696 11.407302,16.835922 11.988483,17.651661 
	C11.944584,17.993176 11.479938,18.138710 11.133610,17.977615 
	C10.549653,18.223186 10.312024,18.629850 10.074394,19.036514 
z"/>
<path fill="#4E51C3" opacity="1.000000" stroke="none" 
	d="
M8.139496,27.454348 
	C8.390251,30.126640 8.551668,33.244942 8.470068,36.673347 
	C8.168086,33.955753 8.109122,30.928057 8.139496,27.454348 
z"/>
<path fill="#2130BA" opacity="1.000000" stroke="none" 
	d="
M25.052570,33.969540 
	C23.486746,33.499767 21.906099,33.038166 20.139217,32.277554 
	C21.406363,31.995945 22.859749,32.013351 24.648798,32.404922 
	C25.001554,33.178722 25.018646,33.578358 25.035738,33.977997 
	C25.035738,33.977997 25.037748,33.977711 25.052570,33.969540 
z"/>
<path fill="#4E51C3" opacity="1.000000" stroke="none" 
	d="
M10.116278,15.514132 
	C9.669753,16.466553 9.182363,17.045637 8.478486,17.825405 
	C8.154475,16.238680 8.046950,14.451273 7.939425,12.663866 
	C8.256900,12.547029 8.574374,12.430193 8.891850,12.313356 
	C9.286369,13.255836 9.680890,14.198315 10.116278,15.514132 
z"/>
<path fill="#4D6FD2" opacity="1.000000" stroke="none" 
	d="
M17.048338,29.573204 
	C16.397724,28.740248 15.693673,27.502741 15.089746,25.852751 
	C15.791548,26.683064 16.393225,27.925858 17.048338,29.573204 
z"/>
<path fill="#4D6FD2" opacity="1.000000" stroke="none" 
	d="
M10.034418,23.023170 
	C11.371022,23.258532 12.707626,23.493895 14.373377,24.170113 
	C14.702524,24.610970 14.686102,24.793791 14.656784,24.843456 
	C13.471680,24.940292 12.315892,24.987465 10.734981,25.040314 
	C10.309855,25.045992 10.124426,25.026312 10.054741,24.685820 
	C10.001510,23.904608 10.017964,23.463890 10.034418,23.023170 
z"/>
<path fill="#2032BB" opacity="1.000000" stroke="none" 
	d="
M10.018372,22.682539 
	C10.017964,23.463890 10.001510,23.904608 9.962023,24.676014 
	C9.575092,24.998341 9.211195,24.989983 8.573391,24.982914 
	C8.245982,23.908144 8.192481,22.832083 8.242550,21.363625 
	C8.705812,20.976017 9.065504,20.980810 9.693794,20.981989 
	C9.975702,21.432886 9.989014,21.887396 10.018372,22.682539 
z"/>
<path fill="#2935BB" opacity="1.000000" stroke="none" 
	d="
M33.147461,35.868553 
	C32.528835,35.986095 32.076843,35.990730 31.284470,35.998512 
	C30.959633,35.285019 30.975183,34.568378 30.988453,33.493374 
	C31.443926,33.111168 31.901684,33.087322 32.679947,33.198692 
	C33.105000,34.141155 33.209549,34.948399 33.147461,35.868553 
z"/>
<path fill="#1F2CB8" opacity="1.000000" stroke="none" 
	d="
M17.908127,39.763531 
	C19.026213,39.392410 20.144299,39.021286 21.615961,38.913036 
	C21.971346,39.390026 21.973152,39.604141 21.974957,39.818253 
	C20.880157,40.130447 19.785358,40.442642 18.333166,40.495445 
	C17.975773,40.236050 17.908127,39.763531 17.908127,39.763531 
z"/>
<path fill="#212DB8" opacity="1.000000" stroke="none" 
	d="
M17.516750,39.762390 
	C17.908127,39.763531 17.975773,40.236050 17.990009,40.474293 
	C16.904682,40.976585 15.805119,41.240635 14.369202,41.304184 
	C14.016193,40.724297 13.999540,40.344910 13.982887,39.965519 
	C15.030382,39.897430 16.077877,39.829342 17.516750,39.762390 
z"/>
<path fill="#1824B5" opacity="1.000000" stroke="none" 
	d="
M22.975412,37.970764 
	C23.700937,37.862907 24.426462,37.755047 25.547636,37.910542 
	C25.955053,38.397621 25.966822,38.621342 25.978590,38.845058 
	C25.204315,39.064354 24.430042,39.283646 23.365355,39.291290 
	C23.041765,38.710018 23.008589,38.340389 22.975412,37.970764 
z"/>
<path fill="#131CB2" opacity="1.000000" stroke="none" 
	d="
M11.440332,42.052216 
	C11.556851,41.730289 11.979408,41.362492 12.687579,41.200783 
	C12.973193,41.406872 12.963430,41.806187 12.963430,41.806190 
	C12.557744,41.872906 12.152057,41.939625 11.440332,42.052216 
z"/>
<path fill="#394BC4" opacity="1.000000" stroke="none" 
	d="
M22.774605,37.994461 
	C23.008589,38.340389 23.041765,38.710018 23.065950,39.357811 
	C22.886232,39.723495 22.715506,39.811012 22.259867,39.858391 
	C21.973152,39.604141 21.971346,39.390026 21.977432,38.850193 
	C22.106819,38.269062 22.302977,38.100288 22.774605,37.994461 
z"/>
<path fill="#3343C0" opacity="1.000000" stroke="none" 
	d="
M26.252691,38.897884 
	C25.966822,38.621342 25.955053,38.397621 25.906582,37.835922 
	C25.869881,37.497948 25.897869,37.208244 25.990139,37.094887 
	C26.388014,37.384430 26.693619,37.787331 27.017338,38.455406 
	C26.865898,38.797287 26.696346,38.873997 26.252691,38.897884 
z"/>
<path fill="#364AC3" opacity="1.000000" stroke="none" 
	d="
M13.242790,41.859673 
	C12.963430,41.806187 12.973193,41.406872 12.984728,41.207649 
	C12.995956,40.823193 12.995650,40.637959 13.008945,40.173653 
	C13.022546,39.894577 13.504098,39.915428 13.743492,39.940475 
	C13.999540,40.344910 14.016193,40.724297 14.035200,41.388039 
	C13.865754,41.752647 13.693952,41.832901 13.242790,41.859673 
z"/>
<path fill="#364AC3" opacity="1.000000" stroke="none" 
	d="
M25.277601,33.867203 
	C25.018646,33.578358 25.001554,33.178722 24.982327,32.478920 
	C25.163561,32.144749 25.346931,32.110737 25.787510,32.186546 
	C25.869633,32.783047 25.694548,33.269730 25.277601,33.867203 
z"/>
<path fill="#2B3BBD" opacity="1.000000" stroke="none" 
	d="
M10.262781,18.942467 
	C10.312024,18.629850 10.549653,18.223186 10.894432,18.023041 
	C10.877242,18.488428 10.693770,18.694715 10.262781,18.942467 
z"/>
</svg>